<svg xmlns="http://www.w3.org/2000/svg" viewBox="0 0 520 360" fill="none">
  <path d="M260 52V308" stroke="#F8FAFC" stroke-opacity=".12" stroke-dasharray="6 8"/>
  <g font-family="Avenir Next, Segoe UI, sans-serif">
    <text x="70" y="58" fill="#B59765" font-size="12" letter-spacing="3">FUND AUTHORITY</text>
    <text x="308" y="58" fill="#B59765" font-size="12" letter-spacing="3">RESEARCH OVERSIGHT</text>
  </g>
  <g font-family="Avenir Next, Segoe UI, sans-serif">
    <rect x="48" y="84" width="176" height="68" rx="18" fill="#0D1D38" stroke="#FFFFFF" stroke-opacity=".08"/>
    <text x="72" y="110" fill="#C6D0E1" font-size="11" letter-spacing="2">FUND PRESIDENT</text>
    <text x="72" y="134" fill="#F8FAFC" font-size="24" font-weight="600">Major changes</text>
    <text x="72" y="154" fill="#F8FAFC" font-size="24" font-weight="600">signed off here</text>

    <rect x="48" y="178" width="176" height="110" rx="18" fill="#0D1D38" stroke="#FFFFFF" stroke-opacity=".08"/>
    <text x="72" y="206" fill="#C6D0E1" font-size="11" letter-spacing="2">PORTFOLIO MANAGERS</text>
    <text x="72" y="230" fill="#F8FAFC" font-size="20" font-weight="600">Fit, concentration,</text>
    <text x="72" y="249" fill="#F8FAFC" font-size="20" font-weight="600">and risk review</text>
    <text x="72" y="274" fill="#C6D0E1" font-size="12" letter-spacing="2">COMMITTEE PERSPECTIVE</text>

    <rect x="296" y="84" width="176" height="68" rx="18" fill="#0D1D38" stroke="#FFFFFF" stroke-opacity=".08"/>
    <text x="320" y="110" fill="#C6D0E1" font-size="11" letter-spacing="2">DIRECTOR OF RESEARCH</text>
    <text x="320" y="134" fill="#F8FAFC" font-size="24" font-weight="600">Independent</text>
    <text x="320" y="154" fill="#F8FAFC" font-size="24" font-weight="600">oversight</text>

    <rect x="296" y="178" width="78" height="110" rx="18" fill="#0D1D38" stroke="#FFFFFF" stroke-opacity=".08"/>
    <rect x="386" y="178" width="86" height="110" rx="18" fill="#0D1D38" stroke="#FFFFFF" stroke-opacity=".08"/>
    <text x="320" y="206" fill="#C6D0E1" font-size="11" letter-spacing="2">SECTOR TEAMS</text>
    <text x="320" y="232" fill="#F8FAFC" font-size="18" font-weight="600">ER</text>
    <text x="320" y="252" fill="#C6D0E1" font-size="11" letter-spacing="2">TMT / FIG / HC</text>
    <text x="410" y="206" fill="#C6D0E1" font-size="11" letter-spacing="2">OTHER GROUPS</text>
    <text x="410" y="232" fill="#F8FAFC" font-size="18" font-weight="600">M&amp;A</text>
    <text x="410" y="256" fill="#F8FAFC" font-size="18" font-weight="600">Comms</text>
  </g>
  <g stroke="#6E93D6" stroke-width="2" stroke-linecap="round">
    <path d="M296 234H248"/>
    <path d="M248 234L238 227"/>
    <path d="M248 234L238 241"/>
  </g>
  <text x="178" y="326" fill="#C6D0E1" font-family="Avenir Next, Segoe UI, sans-serif" font-size="11" letter-spacing="2">RESEARCH OUTPUT FEEDS THE INVESTMENT COMMITTEE</text>
</svg>
