<svg xmlns="http://www.w3.org/2000/svg" viewBox="0 0 520 360" fill="none">
  <g font-family="Avenir Next, Segoe UI, sans-serif">
    <rect x="42" y="52" width="436" height="256" rx="24" fill="#0D1D38" stroke="#FFFFFF" stroke-opacity=".08"/>
    <rect x="66" y="78" width="388" height="42" rx="14" fill="#09172E"/>
    <circle cx="90" cy="99" r="5" fill="#B59765"/>
    <circle cx="108" cy="99" r="5" fill="#6E93D6"/>
    <circle cx="126" cy="99" r="5" fill="#DCCAA7"/>
    <text x="154" y="104" fill="#F8FAFC" font-size="13" letter-spacing="2">IBKR PAPER TRADING</text>

    <rect x="66" y="138" width="186" height="144" rx="18" fill="#09172E"/>
    <text x="88" y="164" fill="#C6D0E1" font-size="11" letter-spacing="2">ACCOUNT VALUE</text>
    <text x="88" y="203" fill="#F8FAFC" font-size="34" font-weight="600">$100,000</text>
    <path d="M88 236C105 226 121 213 140 214C159 215 175 242 194 238C213 234 224 209 230 202" stroke="#6E93D6" stroke-width="3" stroke-linecap="round"/>
    <path d="M88 250H230" stroke="#F8FAFC" stroke-opacity=".12"/>

    <rect x="270" y="138" width="184" height="64" rx="18" fill="#09172E"/>
    <text x="292" y="163" fill="#C6D0E1" font-size="11" letter-spacing="2">POSITIONS</text>
    <text x="292" y="188" fill="#F8FAFC" font-size="20" font-weight="600">Book and cash view</text>

    <rect x="270" y="218" width="88" height="64" rx="18" fill="#09172E"/>
    <rect x="366" y="218" width="88" height="64" rx="18" fill="#09172E"/>
    <text x="292" y="244" fill="#C6D0E1" font-size="11" letter-spacing="2">TRADE</text>
    <text x="292" y="266" fill="#F8FAFC" font-size="18" font-weight="600">Entry</text>
    <text x="388" y="244" fill="#C6D0E1" font-size="11" letter-spacing="2">ORDERS</text>
    <text x="388" y="266" fill="#F8FAFC" font-size="18" font-weight="600">History</text>
  </g>
</svg>
